<svg xmlns="http://www.w3.org/2000/svg" width="21.24" height="19.816" viewBox="0 0 21.24 19.816">
  <g id="Compare_icon" data-name="Compare icon" transform="translate(0.75 1.061)">
    <g id="Group_8" data-name="Group 8" transform="translate(0)">
      <path id="Path_19" data-name="Path 19" d="M266.675,309.9h-3.97a2.42,2.42,0,0,0-2,1.057l-6.281,9.214a2.419,2.419,0,0,1-2,1.057h-5.488" transform="translate(-246.935 -307.343)" fill="none" stroke="#0e153d" stroke-linecap="round" stroke-linejoin="round" stroke-width="1.5"/>
      <path id="Path_20" data-name="Path 20" d="M273.044,306.012l2.56,2.56-2.56,2.56" transform="translate(-255.864 -306.012)" fill="none" stroke="#0e153d" stroke-linecap="round" stroke-linejoin="round" stroke-width="1.5"/>
    </g>
    <g id="Group_9" data-name="Group 9" transform="translate(0 3.805)">
      <path id="Path_21" data-name="Path 21" d="M266.675,323.124h-3.97a2.422,2.422,0,0,1-2-1.057l-6.281-9.215a2.421,2.421,0,0,0-2-1.057h-5.488" transform="translate(-246.935 -311.795)" fill="none" stroke="#0e153d" stroke-linecap="round" stroke-linejoin="round" stroke-width="1.5"/>
      <path id="Path_22" data-name="Path 22" d="M273.044,325.121l2.56,2.56-2.56,2.56" transform="translate(-255.864 -316.353)" fill="none" stroke="#0e153d" stroke-linecap="round" stroke-linejoin="round" stroke-width="1.5"/>
    </g>
  </g>
</svg>
